<mxfile host="app.diagrams.net" modified="2023-06-10T17:14:40.152Z" agent="Mozilla/5.0 (Windows NT 10.0; Win64; x64) AppleWebKit/537.36 (KHTML, like Gecko) Chrome/114.0.0.0 Safari/537.36" version="21.3.8" etag="meUad5SIngrbwl3K4XQE" type="github">
  <diagram name="Page-1" id="yFwgKfSwXmN2PlnbUbzV">
    <mxGraphModel>
      <root>
        <mxCell id="0" />
        <mxCell id="1" parent="0" />
      </root>
    </mxGraphModel>
  </diagram>
</mxfile>
